ISO-10303-21;
HEADER;
/* Generated by software containing ST-Developer
 * from STEP Tools, Inc. (www.steptools.com) 
 */

FILE_DESCRIPTION(
/* description */ ('STEP AP203'),
/* implementation_level */ '2;1');

FILE_NAME(
/* name */ 'PM160 Post  (vertical).step',
/* time_stamp */ '2025-11-02T09:54:44+01:00',
/* author */ (''),
/* organization */ (''),
/* preprocessor_version */ 'ST-DEVELOPER v20.1',
/* originating_system */ 'Autodesk Translation Framework v14.17.0.0',
/* authorisation */ '');

FILE_SCHEMA (('AP203_CONFIGURATION_CONTROLLED_3D_DESIGN_OF_MECHANICAL_PARTS_AND_ASSEMBLIES_MIM_LF { 1 0 10303 203 3 1 4 }',
'AUTOMOTIVE_DESIGN { 1 0 10303 214 3 1 1 }'));
ENDSEC;

DATA;
#10=MECHANICAL_DESIGN_GEOMETRIC_PRESENTATION_REPRESENTATION('',(#13),#891);
#11=SHAPE_REPRESENTATION_RELATIONSHIP('SRR','None',#897,#12);
#12=ADVANCED_BREP_SHAPE_REPRESENTATION('',(#14),#890);
#13=STYLED_ITEM('',(#906),#14);
#14=MANIFOLD_SOLID_BREP('Body40',#501);
#15=B_SPLINE_SURFACE_WITH_KNOTS('',3,1,((#821,#822),(#823,#824),(#825,#826),
(#827,#828),(#829,#830),(#831,#832),(#833,#834)),.UNSPECIFIED.,.F.,.F.,
 .F.,(4,3,4),(2,2),(-1.,-0.909200973811641,-0.736566881070293),(0.,2.8),
 .UNSPECIFIED.);
#16=B_SPLINE_SURFACE_WITH_KNOTS('',3,1,((#852,#853),(#854,#855),(#856,#857),
(#858,#859),(#860,#861),(#862,#863),(#864,#865)),.UNSPECIFIED.,.F.,.F.,
 .F.,(4,3,4),(2,2),(-0.263433118929875,-0.167168320873269,0.),(0.,2.8),
 .UNSPECIFIED.);
#17=B_SPLINE_CURVE_WITH_KNOTS('',3,(#757,#758,#759,#760,#761,#762,#763),
 .UNSPECIFIED.,.F.,.F.,(4,3,4),(-0.746683202772341,-0.489319557842697,0.),
 .UNSPECIFIED.);
#18=B_SPLINE_CURVE_WITH_KNOTS('',3,(#781,#782,#783,#784,#785,#786,#787),
 .UNSPECIFIED.,.F.,.F.,(4,3,4),(-0.541508502440904,-0.343628270656969,0.),
 .UNSPECIFIED.);
#19=B_SPLINE_CURVE_WITH_KNOTS('',3,(#837,#838,#839,#840,#841,#842,#843),
 .UNSPECIFIED.,.F.,.F.,(4,3,4),(-1.,-0.90920097381164,-0.736566881070293),
 .UNSPECIFIED.);
#20=B_SPLINE_CURVE_WITH_KNOTS('',3,(#867,#868,#869,#870,#871,#872,#873),
 .UNSPECIFIED.,.F.,.F.,(4,3,4),(-0.263433118929875,-0.167168320873269,0.),
 .UNSPECIFIED.);
#21=FACE_BOUND('',#78,.T.);
#22=FACE_BOUND('',#104,.T.);
#23=PLANE('',#508);
#24=PLANE('',#515);
#25=PLANE('',#518);
#26=PLANE('',#521);
#27=PLANE('',#526);
#28=PLANE('',#532);
#29=PLANE('',#535);
#30=PLANE('',#538);
#31=PLANE('',#539);
#32=PLANE('',#540);
#33=PLANE('',#541);
#34=PLANE('',#542);
#35=PLANE('',#549);
#36=PLANE('',#550);
#37=CYLINDRICAL_SURFACE('',#506,5.75);
#38=CYLINDRICAL_SURFACE('',#516,10.);
#39=CYLINDRICAL_SURFACE('',#519,10.);
#40=CYLINDRICAL_SURFACE('',#522,10.);
#41=CYLINDRICAL_SURFACE('',#524,10.);
#42=CYLINDRICAL_SURFACE('',#533,1.1);
#43=CYLINDRICAL_SURFACE('',#536,1.1);
#44=CYLINDRICAL_SURFACE('',#543,0.299999999999952);
#45=CYLINDRICAL_SURFACE('',#545,226.903206882124);
#46=CYLINDRICAL_SURFACE('',#547,0.300000000004884);
#47=FACE_OUTER_BOUND('',#75,.T.);
#48=FACE_OUTER_BOUND('',#76,.T.);
#49=FACE_OUTER_BOUND('',#77,.T.);
#50=FACE_OUTER_BOUND('',#79,.T.);
#51=FACE_OUTER_BOUND('',#80,.T.);
#52=FACE_OUTER_BOUND('',#81,.T.);
#53=FACE_OUTER_BOUND('',#82,.T.);
#54=FACE_OUTER_BOUND('',#83,.T.);
#55=FACE_OUTER_BOUND('',#84,.T.);
#56=FACE_OUTER_BOUND('',#85,.T.);
#57=FACE_OUTER_BOUND('',#86,.T.);
#58=FACE_OUTER_BOUND('',#87,.T.);
#59=FACE_OUTER_BOUND('',#88,.T.);
#60=FACE_OUTER_BOUND('',#89,.T.);
#61=FACE_OUTER_BOUND('',#90,.T.);
#62=FACE_OUTER_BOUND('',#91,.T.);
#63=FACE_OUTER_BOUND('',#92,.T.);
#64=FACE_OUTER_BOUND('',#93,.T.);
#65=FACE_OUTER_BOUND('',#94,.T.);
#66=FACE_OUTER_BOUND('',#95,.T.);
#67=FACE_OUTER_BOUND('',#96,.T.);
#68=FACE_OUTER_BOUND('',#97,.T.);
#69=FACE_OUTER_BOUND('',#98,.T.);
#70=FACE_OUTER_BOUND('',#99,.T.);
#71=FACE_OUTER_BOUND('',#100,.T.);
#72=FACE_OUTER_BOUND('',#101,.T.);
#73=FACE_OUTER_BOUND('',#102,.T.);
#74=FACE_OUTER_BOUND('',#103,.T.);
#75=EDGE_LOOP('',(#331,#332,#333,#334));
#76=EDGE_LOOP('',(#335,#336,#337,#338));
#77=EDGE_LOOP('',(#339,#340,#341,#342,#343,#344,#345,#346));
#78=EDGE_LOOP('',(#347));
#79=EDGE_LOOP('',(#348,#349,#350,#351));
#80=EDGE_LOOP('',(#352));
#81=EDGE_LOOP('',(#353,#354,#355,#356));
#82=EDGE_LOOP('',(#357,#358,#359,#360));
#83=EDGE_LOOP('',(#361,#362,#363,#364));
#84=EDGE_LOOP('',(#365,#366,#367,#368));
#85=EDGE_LOOP('',(#369,#370,#371,#372));
#86=EDGE_LOOP('',(#373,#374,#375,#376));
#87=EDGE_LOOP('',(#377,#378,#379,#380,#381,#382,#383,#384,#385,#386,#387,
#388,#389));
#88=EDGE_LOOP('',(#390,#391,#392,#393));
#89=EDGE_LOOP('',(#394,#395,#396,#397));
#90=EDGE_LOOP('',(#398,#399,#400,#401));
#91=EDGE_LOOP('',(#402,#403,#404,#405));
#92=EDGE_LOOP('',(#406,#407,#408,#409));
#93=EDGE_LOOP('',(#410,#411,#412,#413));
#94=EDGE_LOOP('',(#414,#415,#416,#417));
#95=EDGE_LOOP('',(#418,#419,#420,#421));
#96=EDGE_LOOP('',(#422,#423,#424,#425));
#97=EDGE_LOOP('',(#426,#427,#428,#429));
#98=EDGE_LOOP('',(#430,#431,#432,#433));
#99=EDGE_LOOP('',(#434,#435,#436,#437));
#100=EDGE_LOOP('',(#438,#439,#440,#441));
#101=EDGE_LOOP('',(#442,#443,#444,#445));
#102=EDGE_LOOP('',(#446,#447,#448,#449));
#103=EDGE_LOOP('',(#450,#451,#452,#453,#454,#455,#456,#457));
#104=EDGE_LOOP('',(#458,#459,#460,#461,#462,#463,#464,#465,#466,#467,#468,
#469,#470));
#105=LINE('',#698,#149);
#106=LINE('',#703,#150);
#107=LINE('',#709,#151);
#108=LINE('',#713,#152);
#109=LINE('',#717,#153);
#110=LINE('',#720,#154);
#111=LINE('',#724,#155);
#112=LINE('',#730,#156);
#113=LINE('',#731,#157);
#114=LINE('',#734,#158);
#115=LINE('',#735,#159);
#116=LINE('',#740,#160);
#117=LINE('',#741,#161);
#118=LINE('',#744,#162);
#119=LINE('',#745,#163);
#120=LINE('',#749,#164);
#121=LINE('',#753,#165);
#122=LINE('',#765,#166);
#123=LINE('',#767,#167);
#124=LINE('',#769,#168);
#125=LINE('',#773,#169);
#126=LINE('',#777,#170);
#127=LINE('',#779,#171);
#128=LINE('',#794,#172);
#129=LINE('',#797,#173);
#130=LINE('',#800,#174);
#131=LINE('',#803,#175);
#132=LINE('',#804,#176);
#133=LINE('',#807,#177);
#134=LINE('',#811,#178);
#135=LINE('',#812,#179);
#136=LINE('',#815,#180);
#137=LINE('',#816,#181);
#138=LINE('',#819,#182);
#139=LINE('',#820,#183);
#140=LINE('',#836,#184);
#141=LINE('',#846,#185);
#142=LINE('',#847,#186);
#143=LINE('',#850,#187);
#144=LINE('',#851,#188);
#145=LINE('',#874,#189);
#146=LINE('',#878,#190);
#147=LINE('',#882,#191);
#148=LINE('',#886,#192);
#149=VECTOR('',#557,7.25);
#150=VECTOR('',#564,5.75);
#151=VECTOR('',#569,10.);
#152=VECTOR('',#572,10.);
#153=VECTOR('',#575,10.);
#154=VECTOR('',#578,10.);
#155=VECTOR('',#583,4.25);
#156=VECTOR('',#590,10.);
#157=VECTOR('',#591,10.);
#158=VECTOR('',#594,10.);
#159=VECTOR('',#595,10.);
#160=VECTOR('',#600,10.);
#161=VECTOR('',#601,10.);
#162=VECTOR('',#604,10.);
#163=VECTOR('',#605,10.);
#164=VECTOR('',#610,10.);
#165=VECTOR('',#615,10.);
#166=VECTOR('',#618,10.);
#167=VECTOR('',#619,10.);
#168=VECTOR('',#620,10.);
#169=VECTOR('',#623,10.);
#170=VECTOR('',#626,10.);
#171=VECTOR('',#627,10.);
#172=VECTOR('',#636,10.);
#173=VECTOR('',#639,10.);
#174=VECTOR('',#642,10.);
#175=VECTOR('',#645,10.);
#176=VECTOR('',#646,10.);
#177=VECTOR('',#649,10.);
#178=VECTOR('',#654,10.);
#179=VECTOR('',#655,10.);
#180=VECTOR('',#658,10.);
#181=VECTOR('',#659,10.);
#182=VECTOR('',#662,10.);
#183=VECTOR('',#663,10.);
#184=VECTOR('',#664,10.);
#185=VECTOR('',#667,10.);
#186=VECTOR('',#668,10.);
#187=VECTOR('',#671,10.);
#188=VECTOR('',#672,10.);
#189=VECTOR('',#673,10.);
#190=VECTOR('',#678,10.);
#191=VECTOR('',#683,10.);
#192=VECTOR('',#690,10.);
#193=CIRCLE('',#504,8.75);
#194=CIRCLE('',#505,5.75);
#195=CIRCLE('',#507,5.75);
#196=CIRCLE('',#509,10.);
#197=CIRCLE('',#510,10.);
#198=CIRCLE('',#511,10.);
#199=CIRCLE('',#512,10.);
#200=CIRCLE('',#514,2.75);
#201=CIRCLE('',#517,10.);
#202=CIRCLE('',#520,10.);
#203=CIRCLE('',#523,10.);
#204=CIRCLE('',#525,10.);
#205=CIRCLE('',#527,1.1);
#206=CIRCLE('',#528,1.1);
#207=CIRCLE('',#529,0.299999999999952);
#208=CIRCLE('',#530,226.903206882124);
#209=CIRCLE('',#531,0.300000000004884);
#210=CIRCLE('',#534,1.1);
#211=CIRCLE('',#537,1.1);
#212=CIRCLE('',#544,0.299999999999952);
#213=CIRCLE('',#546,226.903206882124);
#214=CIRCLE('',#548,0.300000000004884);
#215=VERTEX_POINT('',#695);
#216=VERTEX_POINT('',#697);
#217=VERTEX_POINT('',#701);
#218=VERTEX_POINT('',#705);
#219=VERTEX_POINT('',#706);
#220=VERTEX_POINT('',#708);
#221=VERTEX_POINT('',#710);
#222=VERTEX_POINT('',#712);
#223=VERTEX_POINT('',#714);
#224=VERTEX_POINT('',#716);
#225=VERTEX_POINT('',#718);
#226=VERTEX_POINT('',#722);
#227=VERTEX_POINT('',#727);
#228=VERTEX_POINT('',#728);
#229=VERTEX_POINT('',#733);
#230=VERTEX_POINT('',#737);
#231=VERTEX_POINT('',#738);
#232=VERTEX_POINT('',#743);
#233=VERTEX_POINT('',#747);
#234=VERTEX_POINT('',#751);
#235=VERTEX_POINT('',#755);
#236=VERTEX_POINT('',#756);
#237=VERTEX_POINT('',#764);
#238=VERTEX_POINT('',#766);
#239=VERTEX_POINT('',#768);
#240=VERTEX_POINT('',#770);
#241=VERTEX_POINT('',#772);
#242=VERTEX_POINT('',#774);
#243=VERTEX_POINT('',#776);
#244=VERTEX_POINT('',#778);
#245=VERTEX_POINT('',#780);
#246=VERTEX_POINT('',#788);
#247=VERTEX_POINT('',#790);
#248=VERTEX_POINT('',#796);
#249=VERTEX_POINT('',#798);
#250=VERTEX_POINT('',#802);
#251=VERTEX_POINT('',#806);
#252=VERTEX_POINT('',#810);
#253=VERTEX_POINT('',#814);
#254=VERTEX_POINT('',#818);
#255=VERTEX_POINT('',#835);
#256=VERTEX_POINT('',#845);
#257=VERTEX_POINT('',#849);
#258=VERTEX_POINT('',#866);
#259=VERTEX_POINT('',#876);
#260=VERTEX_POINT('',#880);
#261=EDGE_CURVE('',#215,#215,#193,.T.);
#262=EDGE_CURVE('',#215,#216,#105,.T.);
#263=EDGE_CURVE('',#216,#216,#194,.T.);
#264=EDGE_CURVE('',#217,#217,#195,.T.);
#265=EDGE_CURVE('',#217,#216,#106,.T.);
#266=EDGE_CURVE('',#218,#219,#196,.T.);
#267=EDGE_CURVE('',#220,#218,#107,.T.);
#268=EDGE_CURVE('',#221,#220,#197,.T.);
#269=EDGE_CURVE('',#222,#221,#108,.T.);
#270=EDGE_CURVE('',#223,#222,#198,.T.);
#271=EDGE_CURVE('',#224,#223,#109,.T.);
#272=EDGE_CURVE('',#225,#224,#199,.T.);
#273=EDGE_CURVE('',#219,#225,#110,.T.);
#274=EDGE_CURVE('',#226,#226,#200,.T.);
#275=EDGE_CURVE('',#226,#217,#111,.T.);
#276=EDGE_CURVE('',#227,#228,#201,.T.);
#277=EDGE_CURVE('',#228,#218,#112,.T.);
#278=EDGE_CURVE('',#219,#227,#113,.T.);
#279=EDGE_CURVE('',#229,#225,#114,.T.);
#280=EDGE_CURVE('',#227,#229,#115,.T.);
#281=EDGE_CURVE('',#230,#231,#202,.T.);
#282=EDGE_CURVE('',#231,#221,#116,.T.);
#283=EDGE_CURVE('',#220,#230,#117,.T.);
#284=EDGE_CURVE('',#232,#231,#118,.T.);
#285=EDGE_CURVE('',#222,#232,#119,.T.);
#286=EDGE_CURVE('',#232,#233,#203,.T.);
#287=EDGE_CURVE('',#233,#223,#120,.T.);
#288=EDGE_CURVE('',#234,#229,#204,.T.);
#289=EDGE_CURVE('',#224,#234,#121,.T.);
#290=EDGE_CURVE('',#235,#236,#17,.T.);
#291=EDGE_CURVE('',#237,#235,#122,.T.);
#292=EDGE_CURVE('',#238,#237,#123,.T.);
#293=EDGE_CURVE('',#239,#238,#124,.T.);
#294=EDGE_CURVE('',#240,#239,#205,.T.);
#295=EDGE_CURVE('',#241,#240,#125,.T.);
#296=EDGE_CURVE('',#242,#241,#206,.T.);
#297=EDGE_CURVE('',#243,#242,#126,.T.);
#298=EDGE_CURVE('',#244,#243,#127,.T.);
#299=EDGE_CURVE('',#245,#244,#18,.T.);
#300=EDGE_CURVE('',#246,#245,#207,.T.);
#301=EDGE_CURVE('',#247,#246,#208,.T.);
#302=EDGE_CURVE('',#236,#247,#209,.T.);
#303=EDGE_CURVE('',#234,#233,#128,.T.);
#304=EDGE_CURVE('',#241,#248,#129,.T.);
#305=EDGE_CURVE('',#249,#248,#210,.T.);
#306=EDGE_CURVE('',#242,#249,#130,.T.);
#307=EDGE_CURVE('',#240,#250,#131,.T.);
#308=EDGE_CURVE('',#248,#250,#132,.T.);
#309=EDGE_CURVE('',#239,#251,#133,.T.);
#310=EDGE_CURVE('',#250,#251,#211,.T.);
#311=EDGE_CURVE('',#238,#252,#134,.T.);
#312=EDGE_CURVE('',#251,#252,#135,.T.);
#313=EDGE_CURVE('',#237,#253,#136,.T.);
#314=EDGE_CURVE('',#252,#253,#137,.T.);
#315=EDGE_CURVE('',#235,#254,#138,.T.);
#316=EDGE_CURVE('',#253,#254,#139,.T.);
#317=EDGE_CURVE('',#236,#255,#140,.T.);
#318=EDGE_CURVE('',#254,#255,#19,.T.);
#319=EDGE_CURVE('',#256,#249,#141,.T.);
#320=EDGE_CURVE('',#243,#256,#142,.T.);
#321=EDGE_CURVE('',#257,#256,#143,.T.);
#322=EDGE_CURVE('',#244,#257,#144,.T.);
#323=EDGE_CURVE('',#258,#257,#20,.T.);
#324=EDGE_CURVE('',#245,#258,#145,.T.);
#325=EDGE_CURVE('',#259,#258,#212,.T.);
#326=EDGE_CURVE('',#246,#259,#146,.T.);
#327=EDGE_CURVE('',#260,#259,#213,.T.);
#328=EDGE_CURVE('',#247,#260,#147,.T.);
#329=EDGE_CURVE('',#255,#260,#214,.T.);
#330=EDGE_CURVE('',#230,#228,#148,.T.);
#331=ORIENTED_EDGE('',*,*,#261,.T.);
#332=ORIENTED_EDGE('',*,*,#262,.T.);
#333=ORIENTED_EDGE('',*,*,#263,.T.);
#334=ORIENTED_EDGE('',*,*,#262,.F.);
#335=ORIENTED_EDGE('',*,*,#264,.F.);
#336=ORIENTED_EDGE('',*,*,#265,.T.);
#337=ORIENTED_EDGE('',*,*,#263,.F.);
#338=ORIENTED_EDGE('',*,*,#265,.F.);
#339=ORIENTED_EDGE('',*,*,#266,.F.);
#340=ORIENTED_EDGE('',*,*,#267,.F.);
#341=ORIENTED_EDGE('',*,*,#268,.F.);
#342=ORIENTED_EDGE('',*,*,#269,.F.);
#343=ORIENTED_EDGE('',*,*,#270,.F.);
#344=ORIENTED_EDGE('',*,*,#271,.F.);
#345=ORIENTED_EDGE('',*,*,#272,.F.);
#346=ORIENTED_EDGE('',*,*,#273,.F.);
#347=ORIENTED_EDGE('',*,*,#261,.F.);
#348=ORIENTED_EDGE('',*,*,#274,.T.);
#349=ORIENTED_EDGE('',*,*,#275,.T.);
#350=ORIENTED_EDGE('',*,*,#264,.T.);
#351=ORIENTED_EDGE('',*,*,#275,.F.);
#352=ORIENTED_EDGE('',*,*,#274,.F.);
#353=ORIENTED_EDGE('',*,*,#276,.T.);
#354=ORIENTED_EDGE('',*,*,#277,.T.);
#355=ORIENTED_EDGE('',*,*,#266,.T.);
#356=ORIENTED_EDGE('',*,*,#278,.T.);
#357=ORIENTED_EDGE('',*,*,#278,.F.);
#358=ORIENTED_EDGE('',*,*,#273,.T.);
#359=ORIENTED_EDGE('',*,*,#279,.F.);
#360=ORIENTED_EDGE('',*,*,#280,.F.);
#361=ORIENTED_EDGE('',*,*,#281,.T.);
#362=ORIENTED_EDGE('',*,*,#282,.T.);
#363=ORIENTED_EDGE('',*,*,#268,.T.);
#364=ORIENTED_EDGE('',*,*,#283,.T.);
#365=ORIENTED_EDGE('',*,*,#282,.F.);
#366=ORIENTED_EDGE('',*,*,#284,.F.);
#367=ORIENTED_EDGE('',*,*,#285,.F.);
#368=ORIENTED_EDGE('',*,*,#269,.T.);
#369=ORIENTED_EDGE('',*,*,#286,.T.);
#370=ORIENTED_EDGE('',*,*,#287,.T.);
#371=ORIENTED_EDGE('',*,*,#270,.T.);
#372=ORIENTED_EDGE('',*,*,#285,.T.);
#373=ORIENTED_EDGE('',*,*,#288,.T.);
#374=ORIENTED_EDGE('',*,*,#279,.T.);
#375=ORIENTED_EDGE('',*,*,#272,.T.);
#376=ORIENTED_EDGE('',*,*,#289,.T.);
#377=ORIENTED_EDGE('',*,*,#290,.F.);
#378=ORIENTED_EDGE('',*,*,#291,.F.);
#379=ORIENTED_EDGE('',*,*,#292,.F.);
#380=ORIENTED_EDGE('',*,*,#293,.F.);
#381=ORIENTED_EDGE('',*,*,#294,.F.);
#382=ORIENTED_EDGE('',*,*,#295,.F.);
#383=ORIENTED_EDGE('',*,*,#296,.F.);
#384=ORIENTED_EDGE('',*,*,#297,.F.);
#385=ORIENTED_EDGE('',*,*,#298,.F.);
#386=ORIENTED_EDGE('',*,*,#299,.F.);
#387=ORIENTED_EDGE('',*,*,#300,.F.);
#388=ORIENTED_EDGE('',*,*,#301,.F.);
#389=ORIENTED_EDGE('',*,*,#302,.F.);
#390=ORIENTED_EDGE('',*,*,#287,.F.);
#391=ORIENTED_EDGE('',*,*,#303,.F.);
#392=ORIENTED_EDGE('',*,*,#289,.F.);
#393=ORIENTED_EDGE('',*,*,#271,.T.);
#394=ORIENTED_EDGE('',*,*,#296,.T.);
#395=ORIENTED_EDGE('',*,*,#304,.T.);
#396=ORIENTED_EDGE('',*,*,#305,.F.);
#397=ORIENTED_EDGE('',*,*,#306,.F.);
#398=ORIENTED_EDGE('',*,*,#295,.T.);
#399=ORIENTED_EDGE('',*,*,#307,.T.);
#400=ORIENTED_EDGE('',*,*,#308,.F.);
#401=ORIENTED_EDGE('',*,*,#304,.F.);
#402=ORIENTED_EDGE('',*,*,#294,.T.);
#403=ORIENTED_EDGE('',*,*,#309,.T.);
#404=ORIENTED_EDGE('',*,*,#310,.F.);
#405=ORIENTED_EDGE('',*,*,#307,.F.);
#406=ORIENTED_EDGE('',*,*,#293,.T.);
#407=ORIENTED_EDGE('',*,*,#311,.T.);
#408=ORIENTED_EDGE('',*,*,#312,.F.);
#409=ORIENTED_EDGE('',*,*,#309,.F.);
#410=ORIENTED_EDGE('',*,*,#292,.T.);
#411=ORIENTED_EDGE('',*,*,#313,.T.);
#412=ORIENTED_EDGE('',*,*,#314,.F.);
#413=ORIENTED_EDGE('',*,*,#311,.F.);
#414=ORIENTED_EDGE('',*,*,#291,.T.);
#415=ORIENTED_EDGE('',*,*,#315,.T.);
#416=ORIENTED_EDGE('',*,*,#316,.F.);
#417=ORIENTED_EDGE('',*,*,#313,.F.);
#418=ORIENTED_EDGE('',*,*,#290,.T.);
#419=ORIENTED_EDGE('',*,*,#317,.T.);
#420=ORIENTED_EDGE('',*,*,#318,.F.);
#421=ORIENTED_EDGE('',*,*,#315,.F.);
#422=ORIENTED_EDGE('',*,*,#297,.T.);
#423=ORIENTED_EDGE('',*,*,#306,.T.);
#424=ORIENTED_EDGE('',*,*,#319,.F.);
#425=ORIENTED_EDGE('',*,*,#320,.F.);
#426=ORIENTED_EDGE('',*,*,#298,.T.);
#427=ORIENTED_EDGE('',*,*,#320,.T.);
#428=ORIENTED_EDGE('',*,*,#321,.F.);
#429=ORIENTED_EDGE('',*,*,#322,.F.);
#430=ORIENTED_EDGE('',*,*,#299,.T.);
#431=ORIENTED_EDGE('',*,*,#322,.T.);
#432=ORIENTED_EDGE('',*,*,#323,.F.);
#433=ORIENTED_EDGE('',*,*,#324,.F.);
#434=ORIENTED_EDGE('',*,*,#300,.T.);
#435=ORIENTED_EDGE('',*,*,#324,.T.);
#436=ORIENTED_EDGE('',*,*,#325,.F.);
#437=ORIENTED_EDGE('',*,*,#326,.F.);
#438=ORIENTED_EDGE('',*,*,#301,.T.);
#439=ORIENTED_EDGE('',*,*,#326,.T.);
#440=ORIENTED_EDGE('',*,*,#327,.F.);
#441=ORIENTED_EDGE('',*,*,#328,.F.);
#442=ORIENTED_EDGE('',*,*,#302,.T.);
#443=ORIENTED_EDGE('',*,*,#328,.T.);
#444=ORIENTED_EDGE('',*,*,#329,.F.);
#445=ORIENTED_EDGE('',*,*,#317,.F.);
#446=ORIENTED_EDGE('',*,*,#277,.F.);
#447=ORIENTED_EDGE('',*,*,#330,.F.);
#448=ORIENTED_EDGE('',*,*,#283,.F.);
#449=ORIENTED_EDGE('',*,*,#267,.T.);
#450=ORIENTED_EDGE('',*,*,#276,.F.);
#451=ORIENTED_EDGE('',*,*,#280,.T.);
#452=ORIENTED_EDGE('',*,*,#288,.F.);
#453=ORIENTED_EDGE('',*,*,#303,.T.);
#454=ORIENTED_EDGE('',*,*,#286,.F.);
#455=ORIENTED_EDGE('',*,*,#284,.T.);
#456=ORIENTED_EDGE('',*,*,#281,.F.);
#457=ORIENTED_EDGE('',*,*,#330,.T.);
#458=ORIENTED_EDGE('',*,*,#329,.T.);
#459=ORIENTED_EDGE('',*,*,#327,.T.);
#460=ORIENTED_EDGE('',*,*,#325,.T.);
#461=ORIENTED_EDGE('',*,*,#323,.T.);
#462=ORIENTED_EDGE('',*,*,#321,.T.);
#463=ORIENTED_EDGE('',*,*,#319,.T.);
#464=ORIENTED_EDGE('',*,*,#305,.T.);
#465=ORIENTED_EDGE('',*,*,#308,.T.);
#466=ORIENTED_EDGE('',*,*,#310,.T.);
#467=ORIENTED_EDGE('',*,*,#312,.T.);
#468=ORIENTED_EDGE('',*,*,#314,.T.);
#469=ORIENTED_EDGE('',*,*,#316,.T.);
#470=ORIENTED_EDGE('',*,*,#318,.T.);
#471=CONICAL_SURFACE('',#503,7.25,0.785398163397448);
#472=CONICAL_SURFACE('',#513,4.25,0.785398163397448);
#473=ADVANCED_FACE('',(#47),#471,.T.);
#474=ADVANCED_FACE('',(#48),#37,.T.);
#475=ADVANCED_FACE('',(#49,#21),#23,.F.);
#476=ADVANCED_FACE('',(#50),#472,.T.);
#477=ADVANCED_FACE('',(#51),#24,.T.);
#478=ADVANCED_FACE('',(#52),#38,.T.);
#479=ADVANCED_FACE('',(#53),#25,.T.);
#480=ADVANCED_FACE('',(#54),#39,.T.);
#481=ADVANCED_FACE('',(#55),#26,.T.);
#482=ADVANCED_FACE('',(#56),#40,.T.);
#483=ADVANCED_FACE('',(#57),#41,.T.);
#484=ADVANCED_FACE('',(#58),#27,.T.);
#485=ADVANCED_FACE('',(#59),#28,.T.);
#486=ADVANCED_FACE('',(#60),#42,.F.);
#487=ADVANCED_FACE('',(#61),#29,.T.);
#488=ADVANCED_FACE('',(#62),#43,.F.);
#489=ADVANCED_FACE('',(#63),#30,.T.);
#490=ADVANCED_FACE('',(#64),#31,.T.);
#491=ADVANCED_FACE('',(#65),#32,.T.);
#492=ADVANCED_FACE('',(#66),#15,.T.);
#493=ADVANCED_FACE('',(#67),#33,.T.);
#494=ADVANCED_FACE('',(#68),#34,.T.);
#495=ADVANCED_FACE('',(#69),#16,.T.);
#496=ADVANCED_FACE('',(#70),#44,.F.);
#497=ADVANCED_FACE('',(#71),#45,.F.);
#498=ADVANCED_FACE('',(#72),#46,.F.);
#499=ADVANCED_FACE('',(#73),#35,.T.);
#500=ADVANCED_FACE('',(#74,#22),#36,.T.);
#501=CLOSED_SHELL('',(#473,#474,#475,#476,#477,#478,#479,#480,#481,#482,
#483,#484,#485,#486,#487,#488,#489,#490,#491,#492,#493,#494,#495,#496,#497,
#498,#499,#500));
#502=AXIS2_PLACEMENT_3D('',#693,#551,#552);
#503=AXIS2_PLACEMENT_3D('',#694,#553,#554);
#504=AXIS2_PLACEMENT_3D('',#696,#555,#556);
#505=AXIS2_PLACEMENT_3D('',#699,#558,#559);
#506=AXIS2_PLACEMENT_3D('',#700,#560,#561);
#507=AXIS2_PLACEMENT_3D('',#702,#562,#563);
#508=AXIS2_PLACEMENT_3D('',#704,#565,#566);
#509=AXIS2_PLACEMENT_3D('',#707,#567,#568);
#510=AXIS2_PLACEMENT_3D('',#711,#570,#571);
#511=AXIS2_PLACEMENT_3D('',#715,#573,#574);
#512=AXIS2_PLACEMENT_3D('',#719,#576,#577);
#513=AXIS2_PLACEMENT_3D('',#721,#579,#580);
#514=AXIS2_PLACEMENT_3D('',#723,#581,#582);
#515=AXIS2_PLACEMENT_3D('',#725,#584,#585);
#516=AXIS2_PLACEMENT_3D('',#726,#586,#587);
#517=AXIS2_PLACEMENT_3D('',#729,#588,#589);
#518=AXIS2_PLACEMENT_3D('',#732,#592,#593);
#519=AXIS2_PLACEMENT_3D('',#736,#596,#597);
#520=AXIS2_PLACEMENT_3D('',#739,#598,#599);
#521=AXIS2_PLACEMENT_3D('',#742,#602,#603);
#522=AXIS2_PLACEMENT_3D('',#746,#606,#607);
#523=AXIS2_PLACEMENT_3D('',#748,#608,#609);
#524=AXIS2_PLACEMENT_3D('',#750,#611,#612);
#525=AXIS2_PLACEMENT_3D('',#752,#613,#614);
#526=AXIS2_PLACEMENT_3D('',#754,#616,#617);
#527=AXIS2_PLACEMENT_3D('',#771,#621,#622);
#528=AXIS2_PLACEMENT_3D('',#775,#624,#625);
#529=AXIS2_PLACEMENT_3D('',#789,#628,#629);
#530=AXIS2_PLACEMENT_3D('',#791,#630,#631);
#531=AXIS2_PLACEMENT_3D('',#792,#632,#633);
#532=AXIS2_PLACEMENT_3D('',#793,#634,#635);
#533=AXIS2_PLACEMENT_3D('',#795,#637,#638);
#534=AXIS2_PLACEMENT_3D('',#799,#640,#641);
#535=AXIS2_PLACEMENT_3D('',#801,#643,#644);
#536=AXIS2_PLACEMENT_3D('',#805,#647,#648);
#537=AXIS2_PLACEMENT_3D('',#808,#650,#651);
#538=AXIS2_PLACEMENT_3D('',#809,#652,#653);
#539=AXIS2_PLACEMENT_3D('',#813,#656,#657);
#540=AXIS2_PLACEMENT_3D('',#817,#660,#661);
#541=AXIS2_PLACEMENT_3D('',#844,#665,#666);
#542=AXIS2_PLACEMENT_3D('',#848,#669,#670);
#543=AXIS2_PLACEMENT_3D('',#875,#674,#675);
#544=AXIS2_PLACEMENT_3D('',#877,#676,#677);
#545=AXIS2_PLACEMENT_3D('',#879,#679,#680);
#546=AXIS2_PLACEMENT_3D('',#881,#681,#682);
#547=AXIS2_PLACEMENT_3D('',#883,#684,#685);
#548=AXIS2_PLACEMENT_3D('',#884,#686,#687);
#549=AXIS2_PLACEMENT_3D('',#885,#688,#689);
#550=AXIS2_PLACEMENT_3D('',#887,#691,#692);
#551=DIRECTION('axis',(0.,0.,1.));
#552=DIRECTION('refdir',(1.,0.,0.));
#553=DIRECTION('center_axis',(1.,0.,0.));
#554=DIRECTION('ref_axis',(0.,-1.,0.));
#555=DIRECTION('center_axis',(-1.,0.,0.));
#556=DIRECTION('ref_axis',(0.,-1.,0.));
#557=DIRECTION('',(-0.707106781186547,-0.707106781186547,-8.65956056235493E-17));
#558=DIRECTION('center_axis',(1.,0.,0.));
#559=DIRECTION('ref_axis',(0.,-1.,0.));
#560=DIRECTION('center_axis',(-1.,0.,0.));
#561=DIRECTION('ref_axis',(0.,-1.,0.));
#562=DIRECTION('center_axis',(-1.,0.,0.));
#563=DIRECTION('ref_axis',(0.,-1.,0.));
#564=DIRECTION('',(1.,0.,0.));
#565=DIRECTION('center_axis',(1.,0.,0.));
#566=DIRECTION('ref_axis',(0.,1.,0.));
#567=DIRECTION('center_axis',(1.,0.,0.));
#568=DIRECTION('ref_axis',(0.,-0.707106781186547,0.707106781186547));
#569=DIRECTION('',(0.,-1.,0.));
#570=DIRECTION('center_axis',(1.,0.,0.));
#571=DIRECTION('ref_axis',(0.,0.707106781186547,0.707106781186547));
#572=DIRECTION('',(0.,0.,1.));
#573=DIRECTION('center_axis',(1.,0.,0.));
#574=DIRECTION('ref_axis',(0.,0.707106781186547,-0.707106781186547));
#575=DIRECTION('',(0.,1.,0.));
#576=DIRECTION('center_axis',(1.,0.,0.));
#577=DIRECTION('ref_axis',(0.,-0.707106781186547,-0.707106781186547));
#578=DIRECTION('',(0.,0.,-1.));
#579=DIRECTION('center_axis',(1.,0.,0.));
#580=DIRECTION('ref_axis',(0.,-1.,0.));
#581=DIRECTION('center_axis',(1.,0.,0.));
#582=DIRECTION('ref_axis',(0.,-1.,0.));
#583=DIRECTION('',(0.707106781186548,0.707106781186547,-8.65956056235493E-17));
#584=DIRECTION('center_axis',(-1.,0.,0.));
#585=DIRECTION('ref_axis',(0.,-1.,0.));
#586=DIRECTION('center_axis',(1.,0.,0.));
#587=DIRECTION('ref_axis',(0.,-0.707106781186547,0.707106781186547));
#588=DIRECTION('center_axis',(-1.,0.,0.));
#589=DIRECTION('ref_axis',(0.,-0.707106781186547,0.707106781186547));
#590=DIRECTION('',(-1.,0.,0.));
#591=DIRECTION('',(1.,0.,0.));
#592=DIRECTION('center_axis',(0.,-1.,0.));
#593=DIRECTION('ref_axis',(0.,0.,-1.));
#594=DIRECTION('',(-1.,0.,0.));
#595=DIRECTION('',(0.,0.,-1.));
#596=DIRECTION('center_axis',(1.,0.,0.));
#597=DIRECTION('ref_axis',(0.,0.707106781186547,0.707106781186547));
#598=DIRECTION('center_axis',(-1.,0.,0.));
#599=DIRECTION('ref_axis',(0.,0.707106781186547,0.707106781186547));
#600=DIRECTION('',(-1.,0.,0.));
#601=DIRECTION('',(1.,0.,0.));
#602=DIRECTION('center_axis',(0.,1.,0.));
#603=DIRECTION('ref_axis',(0.,0.,1.));
#604=DIRECTION('',(0.,0.,1.));
#605=DIRECTION('',(1.,0.,0.));
#606=DIRECTION('center_axis',(1.,0.,0.));
#607=DIRECTION('ref_axis',(0.,0.707106781186547,-0.707106781186547));
#608=DIRECTION('center_axis',(-1.,0.,0.));
#609=DIRECTION('ref_axis',(0.,0.707106781186547,-0.707106781186547));
#610=DIRECTION('',(-1.,0.,0.));
#611=DIRECTION('center_axis',(1.,0.,0.));
#612=DIRECTION('ref_axis',(0.,-0.707106781186547,-0.707106781186547));
#613=DIRECTION('center_axis',(-1.,0.,0.));
#614=DIRECTION('ref_axis',(0.,-0.707106781186547,-0.707106781186547));
#615=DIRECTION('',(1.,0.,0.));
#616=DIRECTION('center_axis',(1.,0.,0.));
#617=DIRECTION('ref_axis',(0.,1.,0.));
#618=DIRECTION('',(0.,0.0523359562441009,0.998629534754513));
#619=DIRECTION('',(0.,0.154179566789107,0.988042843800168));
#620=DIRECTION('',(0.,0.,1.));
#621=DIRECTION('center_axis',(-1.,0.,0.));
#622=DIRECTION('ref_axis',(0.,-1.,-3.1540426835942E-17));
#623=DIRECTION('',(0.,-1.,-1.32169407693471E-16));
#624=DIRECTION('center_axis',(-1.,0.,0.));
#625=DIRECTION('ref_axis',(0.,-4.03717463500057E-15,-1.));
#626=DIRECTION('',(0.,0.,-1.));
#627=DIRECTION('',(0.,0.0523359562437113,-0.998629534754534));
#628=DIRECTION('center_axis',(-1.,0.,0.));
#629=DIRECTION('ref_axis',(0.,0.176860831155348,0.984235869293047));
#630=DIRECTION('center_axis',(-1.,0.,0.));
#631=DIRECTION('ref_axis',(0.,0.044130002119742,0.999025796920636));
#632=DIRECTION('center_axis',(-1.,0.,0.));
#633=DIRECTION('ref_axis',(0.,-0.0441300021320177,0.999025796920094));
#634=DIRECTION('center_axis',(0.,0.,-1.));
#635=DIRECTION('ref_axis',(0.,1.,0.));
#636=DIRECTION('',(0.,1.,0.));
#637=DIRECTION('center_axis',(1.,0.,0.));
#638=DIRECTION('ref_axis',(0.,-4.03717463500057E-15,-1.));
#639=DIRECTION('',(1.,0.,0.));
#640=DIRECTION('center_axis',(-1.,0.,0.));
#641=DIRECTION('ref_axis',(0.,-4.03717463500057E-15,-1.));
#642=DIRECTION('',(1.,0.,0.));
#643=DIRECTION('center_axis',(0.,-1.32169407693471E-16,1.));
#644=DIRECTION('ref_axis',(0.,-1.,-1.32169407693471E-16));
#645=DIRECTION('',(1.,0.,0.));
#646=DIRECTION('',(0.,-1.,-1.32169407693471E-16));
#647=DIRECTION('center_axis',(1.,0.,0.));
#648=DIRECTION('ref_axis',(0.,-1.,-3.1540426835942E-17));
#649=DIRECTION('',(1.,0.,0.));
#650=DIRECTION('center_axis',(-1.,0.,0.));
#651=DIRECTION('ref_axis',(0.,-1.,-3.1540426835942E-17));
#652=DIRECTION('center_axis',(0.,1.,0.));
#653=DIRECTION('ref_axis',(0.,0.,1.));
#654=DIRECTION('',(1.,0.,0.));
#655=DIRECTION('',(0.,0.,1.));
#656=DIRECTION('center_axis',(0.,0.988042843800168,-0.154179566789107));
#657=DIRECTION('ref_axis',(0.,0.154179566789107,0.988042843800168));
#658=DIRECTION('',(1.,0.,0.));
#659=DIRECTION('',(0.,0.154179566789107,0.988042843800168));
#660=DIRECTION('center_axis',(0.,0.998629534754513,-0.0523359562441009));
#661=DIRECTION('ref_axis',(0.,0.0523359562441009,0.998629534754513));
#662=DIRECTION('',(1.,0.,0.));
#663=DIRECTION('',(0.,0.0523359562441009,0.998629534754513));
#664=DIRECTION('',(1.,0.,0.));
#665=DIRECTION('center_axis',(0.,-1.,0.));
#666=DIRECTION('ref_axis',(0.,0.,-1.));
#667=DIRECTION('',(0.,0.,-1.));
#668=DIRECTION('',(1.,0.,0.));
#669=DIRECTION('center_axis',(0.,-0.998629534754534,-0.0523359562437113));
#670=DIRECTION('ref_axis',(0.,0.0523359562437113,-0.998629534754534));
#671=DIRECTION('',(0.,0.0523359562437113,-0.998629534754534));
#672=DIRECTION('',(1.,0.,0.));
#673=DIRECTION('',(1.,0.,0.));
#674=DIRECTION('center_axis',(1.,0.,0.));
#675=DIRECTION('ref_axis',(0.,0.176860831155348,0.984235869293047));
#676=DIRECTION('center_axis',(-1.,0.,0.));
#677=DIRECTION('ref_axis',(0.,0.176860831155348,0.984235869293047));
#678=DIRECTION('',(1.,0.,0.));
#679=DIRECTION('center_axis',(1.,0.,0.));
#680=DIRECTION('ref_axis',(0.,0.044130002119742,0.999025796920636));
#681=DIRECTION('center_axis',(-1.,0.,0.));
#682=DIRECTION('ref_axis',(0.,0.044130002119742,0.999025796920636));
#683=DIRECTION('',(1.,0.,0.));
#684=DIRECTION('center_axis',(1.,0.,0.));
#685=DIRECTION('ref_axis',(0.,-0.0441300021320177,0.999025796920094));
#686=DIRECTION('center_axis',(-1.,0.,0.));
#687=DIRECTION('ref_axis',(0.,-0.0441300021320177,0.999025796920094));
#688=DIRECTION('center_axis',(0.,0.,1.));
#689=DIRECTION('ref_axis',(0.,-1.,0.));
#690=DIRECTION('',(0.,-1.,0.));
#691=DIRECTION('center_axis',(1.,0.,0.));
#692=DIRECTION('ref_axis',(0.,1.,0.));
#693=CARTESIAN_POINT('',(0.,0.,0.));
#694=CARTESIAN_POINT('Origin',(-1.5,4.09344528710724,3.5));
#695=CARTESIAN_POINT('',(0.,12.8434452871072,3.5));
#696=CARTESIAN_POINT('Origin',(0.,4.09344528710724,3.5));
#697=CARTESIAN_POINT('',(-3.,9.84344528710725,3.5));
#698=CARTESIAN_POINT('',(-1.5,11.3434452871072,3.5));
#699=CARTESIAN_POINT('Origin',(-3.,4.09344528710724,3.5));
#700=CARTESIAN_POINT('Origin',(0.,4.09344528710724,3.5));
#701=CARTESIAN_POINT('',(-25.,9.84344528710725,3.5));
#702=CARTESIAN_POINT('Origin',(-25.,4.09344528710724,3.5));
#703=CARTESIAN_POINT('',(0.,9.84344528710725,3.5));
#704=CARTESIAN_POINT('Origin',(0.,4.09344528710724,3.5));
#705=CARTESIAN_POINT('',(0.,-5.90655471289276,18.5));
#706=CARTESIAN_POINT('',(0.,-15.9065547128928,8.5));
#707=CARTESIAN_POINT('Origin',(0.,-5.90655471289276,8.5));
#708=CARTESIAN_POINT('',(0.,14.0934452871072,18.5));
#709=CARTESIAN_POINT('',(0.,24.0934452871072,18.5));
#710=CARTESIAN_POINT('',(0.,24.0934452871072,8.5));
#711=CARTESIAN_POINT('Origin',(0.,14.0934452871072,8.5));
#712=CARTESIAN_POINT('',(0.,24.0934452871072,-1.5));
#713=CARTESIAN_POINT('',(0.,24.0934452871072,-11.5));
#714=CARTESIAN_POINT('',(0.,14.0934452871072,-11.5));
#715=CARTESIAN_POINT('Origin',(0.,14.0934452871072,-1.5));
#716=CARTESIAN_POINT('',(0.,-5.90655471289276,-11.5));
#717=CARTESIAN_POINT('',(0.,-15.9065547128928,-11.5));
#718=CARTESIAN_POINT('',(0.,-15.9065547128928,-1.5));
#719=CARTESIAN_POINT('Origin',(0.,-5.90655471289276,-1.5));
#720=CARTESIAN_POINT('',(0.,-15.9065547128928,18.5));
#721=CARTESIAN_POINT('Origin',(-26.5,4.09344528710724,3.5));
#722=CARTESIAN_POINT('',(-28.,6.84344528710724,3.5));
#723=CARTESIAN_POINT('Origin',(-28.,4.09344528710724,3.5));
#724=CARTESIAN_POINT('',(-26.5,8.34344528710725,3.5));
#725=CARTESIAN_POINT('Origin',(-28.,4.09344528710724,3.5));
#726=CARTESIAN_POINT('Origin',(0.,-5.90655471289276,8.5));
#727=CARTESIAN_POINT('',(28.,-15.9065547128928,8.5));
#728=CARTESIAN_POINT('',(28.,-5.90655471289276,18.5));
#729=CARTESIAN_POINT('Origin',(28.,-5.90655471289276,8.5));
#730=CARTESIAN_POINT('',(0.,-5.90655471289276,18.5));
#731=CARTESIAN_POINT('',(0.,-15.9065547128928,8.5));
#732=CARTESIAN_POINT('Origin',(0.,-15.9065547128928,18.5));
#733=CARTESIAN_POINT('',(28.,-15.9065547128928,-1.5));
#734=CARTESIAN_POINT('',(0.,-15.9065547128928,-1.5));
#735=CARTESIAN_POINT('',(28.,-15.9065547128928,18.5));
#736=CARTESIAN_POINT('Origin',(0.,14.0934452871072,8.5));
#737=CARTESIAN_POINT('',(28.,14.0934452871072,18.5));
#738=CARTESIAN_POINT('',(28.,24.0934452871072,8.5));
#739=CARTESIAN_POINT('Origin',(28.,14.0934452871072,8.5));
#740=CARTESIAN_POINT('',(0.,24.0934452871072,8.5));
#741=CARTESIAN_POINT('',(0.,14.0934452871072,18.5));
#742=CARTESIAN_POINT('Origin',(0.,24.0934452871072,-11.5));
#743=CARTESIAN_POINT('',(28.,24.0934452871072,-1.5));
#744=CARTESIAN_POINT('',(28.,24.0934452871072,-11.5));
#745=CARTESIAN_POINT('',(0.,24.0934452871072,-1.5));
#746=CARTESIAN_POINT('Origin',(0.,14.0934452871072,-1.5));
#747=CARTESIAN_POINT('',(28.,14.0934452871072,-11.5));
#748=CARTESIAN_POINT('Origin',(28.,14.0934452871072,-1.5));
#749=CARTESIAN_POINT('',(0.,14.0934452871072,-11.5));
#750=CARTESIAN_POINT('Origin',(0.,-5.90655471289276,-1.5));
#751=CARTESIAN_POINT('',(28.,-5.90655471289276,-11.5));
#752=CARTESIAN_POINT('Origin',(28.,-5.90655471289276,-1.5));
#753=CARTESIAN_POINT('',(0.,-5.90655471289276,-11.5));
#754=CARTESIAN_POINT('Origin',(5.,4.09344528710724,3.5));
#755=CARTESIAN_POINT('',(5.,-9.78484244263786,8.51570078687288));
#756=CARTESIAN_POINT('',(5.,-5.95859351403513,11.853540404514));
#757=CARTESIAN_POINT('Ctrl Pts',(5.,-9.78484244263786,8.51570078687288));
#758=CARTESIAN_POINT('Ctrl Pts',(5.,-9.7510644534508,9.16022321558793));
#759=CARTESIAN_POINT('Ctrl Pts',(5.,-9.58984595150229,9.71961188199996));
#760=CARTESIAN_POINT('Ctrl Pts',(5.,-9.27548724245489,10.1847539345174));
#761=CARTESIAN_POINT('Ctrl Pts',(5.,-8.67780428471962,11.0691177829317));
#762=CARTESIAN_POINT('Ctrl Pts',(5.,-7.57930113885022,11.5623097081627));
#763=CARTESIAN_POINT('Ctrl Pts',(5.,-5.95859351403514,11.853540404514));
#764=CARTESIAN_POINT('',(5.,-10.2041046769115,0.515700786873238));
#765=CARTESIAN_POINT('',(5.,-10.1065377555691,2.37738854916705));
#766=CARTESIAN_POINT('',(5.,-10.2065547128928,0.5));
#767=CARTESIAN_POINT('',(5.,-9.80808561392425,3.05354551780432));
#768=CARTESIAN_POINT('',(5.,-10.2065547128928,-0.2));
#769=CARTESIAN_POINT('',(5.,-10.2065547128928,1.65));
#770=CARTESIAN_POINT('',(5.,-9.10655471289276,-1.3));
#771=CARTESIAN_POINT('Origin',(5.,-9.10655471289276,-0.2));
#772=CARTESIAN_POINT('',(5.,17.2934452871072,-1.3));
#773=CARTESIAN_POINT('',(5.,10.6934452871072,-1.3));
#774=CARTESIAN_POINT('',(5.,18.3934452871072,-0.2));
#775=CARTESIAN_POINT('Origin',(5.,17.2934452871072,-0.199999999999999));
#776=CARTESIAN_POINT('',(5.,18.3934452871072,0.507855776625897));
#777=CARTESIAN_POINT('',(5.,18.3934452871072,2.00392788831295));
#778=CARTESIAN_POINT('',(5.,17.9737719132712,8.51570078687288));
#779=CARTESIAN_POINT('',(5.,18.085833316743,6.37744182984143));
#780=CARTESIAN_POINT('',(5.,14.1475229846637,11.8535404045148));
#781=CARTESIAN_POINT('Ctrl Pts',(5.,14.1475229846637,11.8535404045148));
#782=CARTESIAN_POINT('Ctrl Pts',(5.,15.0512673710375,11.6911433731584));
#783=CARTESIAN_POINT('Ctrl Pts',(5.,15.7846086870383,11.4685341996329));
#784=CARTESIAN_POINT('Ctrl Pts',(5.,16.3682265684549,11.1485284324994));
#785=CARTESIAN_POINT('Ctrl Pts',(5.,17.3817062955994,10.5928234620281));
#786=CARTESIAN_POINT('Ctrl Pts',(5.,17.9115839144356,9.70231849299173));
#787=CARTESIAN_POINT('Ctrl Pts',(5.,17.9737719132712,8.51570078687288));
#788=CARTESIAN_POINT('',(5.,14.1077037359531,11.8579773828031));
#789=CARTESIAN_POINT('Origin',(5.,14.0944647353171,11.5582696437269));
#790=CARTESIAN_POINT('',(5.,-5.91877426532771,11.8579773828071));
#791=CARTESIAN_POINT('Origin',(5.,4.09446473526872,-214.824179696459));
#792=CARTESIAN_POINT('Origin',(5.,-5.90553526468789,11.5582696437262));
#793=CARTESIAN_POINT('Origin',(0.,-15.9065547128928,-11.5));
#794=CARTESIAN_POINT('',(28.,-15.9065547128928,-11.5));
#795=CARTESIAN_POINT('Origin',(0.,17.2934452871072,-0.199999999999999));
#796=CARTESIAN_POINT('',(28.,17.2934452871072,-1.3));
#797=CARTESIAN_POINT('',(0.,17.2934452871072,-1.3));
#798=CARTESIAN_POINT('',(28.,18.3934452871072,-0.2));
#799=CARTESIAN_POINT('Origin',(28.,17.2934452871072,-0.199999999999999));
#800=CARTESIAN_POINT('',(0.,18.3934452871072,-0.2));
#801=CARTESIAN_POINT('Origin',(0.,17.2934452871072,-1.3));
#802=CARTESIAN_POINT('',(28.,-9.10655471289276,-1.3));
#803=CARTESIAN_POINT('',(0.,-9.10655471289276,-1.3));
#804=CARTESIAN_POINT('',(28.,-9.10655471289276,-1.3));
#805=CARTESIAN_POINT('Origin',(0.,-9.10655471289276,-0.2));
#806=CARTESIAN_POINT('',(28.,-10.2065547128928,-0.2));
#807=CARTESIAN_POINT('',(0.,-10.2065547128928,-0.2));
#808=CARTESIAN_POINT('Origin',(28.,-9.10655471289276,-0.2));
#809=CARTESIAN_POINT('Origin',(0.,-10.2065547128928,-0.2));
#810=CARTESIAN_POINT('',(28.,-10.2065547128928,0.5));
#811=CARTESIAN_POINT('',(0.,-10.2065547128928,0.5));
#812=CARTESIAN_POINT('',(28.,-10.2065547128928,0.5));
#813=CARTESIAN_POINT('Origin',(0.,-10.2065547128928,0.5));
#814=CARTESIAN_POINT('',(28.,-10.2041046769115,0.515700786873239));
#815=CARTESIAN_POINT('',(0.,-10.2041046769115,0.515700786873238));
#816=CARTESIAN_POINT('',(28.,-10.2041046769115,0.515700786873238));
#817=CARTESIAN_POINT('Origin',(0.,-10.2041046769115,0.515700786873238));
#818=CARTESIAN_POINT('',(28.,-9.78484244263786,8.51570078687288));
#819=CARTESIAN_POINT('',(0.,-9.78484244263786,8.51570078687288));
#820=CARTESIAN_POINT('',(28.,-9.78484244263786,8.51570078687288));
#821=CARTESIAN_POINT('Ctrl Pts',(0.,-9.78484244263786,8.51570078687288));
#822=CARTESIAN_POINT('Ctrl Pts',(28.,-9.78484244263786,8.51570078687288));
#823=CARTESIAN_POINT('Ctrl Pts',(0.,-9.7510644534508,9.16022321558793));
#824=CARTESIAN_POINT('Ctrl Pts',(28.,-9.7510644534508,9.16022321558793));
#825=CARTESIAN_POINT('Ctrl Pts',(0.,-9.58984595150229,9.71961188199995));
#826=CARTESIAN_POINT('Ctrl Pts',(28.,-9.58984595150229,9.71961188199995));
#827=CARTESIAN_POINT('Ctrl Pts',(0.,-9.27548724245489,10.1847539345174));
#828=CARTESIAN_POINT('Ctrl Pts',(28.,-9.27548724245489,10.1847539345174));
#829=CARTESIAN_POINT('Ctrl Pts',(0.,-8.67780428471962,11.0691177829317));
#830=CARTESIAN_POINT('Ctrl Pts',(28.,-8.67780428471962,11.0691177829317));
#831=CARTESIAN_POINT('Ctrl Pts',(0.,-7.57930113885022,11.5623097081627));
#832=CARTESIAN_POINT('Ctrl Pts',(28.,-7.57930113885022,11.5623097081627));
#833=CARTESIAN_POINT('Ctrl Pts',(0.,-5.95859351403514,11.853540404514));
#834=CARTESIAN_POINT('Ctrl Pts',(28.,-5.95859351403514,11.853540404514));
#835=CARTESIAN_POINT('',(28.,-5.95859351403513,11.853540404514));
#836=CARTESIAN_POINT('',(0.,-5.95859351403513,11.853540404514));
#837=CARTESIAN_POINT('Ctrl Pts',(28.,-9.78484244263786,8.51570078687288));
#838=CARTESIAN_POINT('Ctrl Pts',(28.,-9.7510644534508,9.16022321558793));
#839=CARTESIAN_POINT('Ctrl Pts',(28.,-9.58984595150229,9.71961188199996));
#840=CARTESIAN_POINT('Ctrl Pts',(28.,-9.27548724245489,10.1847539345174));
#841=CARTESIAN_POINT('Ctrl Pts',(28.,-8.67780428471962,11.0691177829317));
#842=CARTESIAN_POINT('Ctrl Pts',(28.,-7.57930113885022,11.5623097081627));
#843=CARTESIAN_POINT('Ctrl Pts',(28.,-5.95859351403514,11.853540404514));
#844=CARTESIAN_POINT('Origin',(0.,18.3934452871072,0.507855776625897));
#845=CARTESIAN_POINT('',(28.,18.3934452871072,0.507855776625896));
#846=CARTESIAN_POINT('',(28.,18.3934452871072,0.507855776625897));
#847=CARTESIAN_POINT('',(0.,18.3934452871072,0.507855776625897));
#848=CARTESIAN_POINT('Origin',(0.,17.9737719132712,8.51570078687288));
#849=CARTESIAN_POINT('',(28.,17.9737719132712,8.51570078687288));
#850=CARTESIAN_POINT('',(28.,18.3934452871072,0.507855776625897));
#851=CARTESIAN_POINT('',(0.,17.9737719132712,8.51570078687288));
#852=CARTESIAN_POINT('Ctrl Pts',(0.,14.1475229846637,11.8535404045148));
#853=CARTESIAN_POINT('Ctrl Pts',(28.,14.1475229846637,11.8535404045148));
#854=CARTESIAN_POINT('Ctrl Pts',(0.,15.0512673710375,11.6911433731584));
#855=CARTESIAN_POINT('Ctrl Pts',(28.,15.0512673710375,11.6911433731584));
#856=CARTESIAN_POINT('Ctrl Pts',(0.,15.7846086870383,11.4685341996329));
#857=CARTESIAN_POINT('Ctrl Pts',(28.,15.7846086870383,11.4685341996329));
#858=CARTESIAN_POINT('Ctrl Pts',(0.,16.3682265684549,11.1485284324994));
#859=CARTESIAN_POINT('Ctrl Pts',(28.,16.3682265684549,11.1485284324994));
#860=CARTESIAN_POINT('Ctrl Pts',(0.,17.3817062955994,10.5928234620281));
#861=CARTESIAN_POINT('Ctrl Pts',(28.,17.3817062955994,10.5928234620281));
#862=CARTESIAN_POINT('Ctrl Pts',(0.,17.9115839144356,9.70231849299173));
#863=CARTESIAN_POINT('Ctrl Pts',(28.,17.9115839144356,9.70231849299173));
#864=CARTESIAN_POINT('Ctrl Pts',(0.,17.9737719132712,8.51570078687288));
#865=CARTESIAN_POINT('Ctrl Pts',(28.,17.9737719132712,8.51570078687288));
#866=CARTESIAN_POINT('',(28.,14.1475229846637,11.8535404045148));
#867=CARTESIAN_POINT('Ctrl Pts',(28.,14.1475229846637,11.8535404045148));
#868=CARTESIAN_POINT('Ctrl Pts',(28.,15.0512673710375,11.6911433731584));
#869=CARTESIAN_POINT('Ctrl Pts',(28.,15.7846086870383,11.4685341996329));
#870=CARTESIAN_POINT('Ctrl Pts',(28.,16.3682265684549,11.1485284324994));
#871=CARTESIAN_POINT('Ctrl Pts',(28.,17.3817062955994,10.5928234620281));
#872=CARTESIAN_POINT('Ctrl Pts',(28.,17.9115839144356,9.70231849299173));
#873=CARTESIAN_POINT('Ctrl Pts',(28.,17.9737719132712,8.51570078687288));
#874=CARTESIAN_POINT('',(0.,14.1475229846637,11.8535404045148));
#875=CARTESIAN_POINT('Origin',(0.,14.0944647353171,11.5582696437269));
#876=CARTESIAN_POINT('',(28.,14.1077037359531,11.8579773828031));
#877=CARTESIAN_POINT('Origin',(28.,14.0944647353171,11.5582696437269));
#878=CARTESIAN_POINT('',(0.,14.1077037359531,11.8579773828031));
#879=CARTESIAN_POINT('Origin',(0.,4.09446473526872,-214.824179696459));
#880=CARTESIAN_POINT('',(28.,-5.91877426532771,11.8579773828071));
#881=CARTESIAN_POINT('Origin',(28.,4.09446473526872,-214.824179696459));
#882=CARTESIAN_POINT('',(0.,-5.91877426532771,11.8579773828071));
#883=CARTESIAN_POINT('Origin',(0.,-5.90553526468789,11.5582696437262));
#884=CARTESIAN_POINT('Origin',(28.,-5.90553526468789,11.5582696437262));
#885=CARTESIAN_POINT('Origin',(0.,24.0934452871072,18.5));
#886=CARTESIAN_POINT('',(28.,24.0934452871072,18.5));
#887=CARTESIAN_POINT('Origin',(28.,4.09344528710724,3.5));
#888=UNCERTAINTY_MEASURE_WITH_UNIT(LENGTH_MEASURE(0.01),#892,
'DISTANCE_ACCURACY_VALUE',
'Maximum model space distance between geometric entities at asserted c
onnectivities');
#889=UNCERTAINTY_MEASURE_WITH_UNIT(LENGTH_MEASURE(0.01),#892,
'DISTANCE_ACCURACY_VALUE',
'Maximum model space distance between geometric entities at asserted c
onnectivities');
#890=(
GEOMETRIC_REPRESENTATION_CONTEXT(3)
GLOBAL_UNCERTAINTY_ASSIGNED_CONTEXT((#888))
GLOBAL_UNIT_ASSIGNED_CONTEXT((#892,#893,#894))
REPRESENTATION_CONTEXT('','3D')
);
#891=(
GEOMETRIC_REPRESENTATION_CONTEXT(3)
GLOBAL_UNCERTAINTY_ASSIGNED_CONTEXT((#889))
GLOBAL_UNIT_ASSIGNED_CONTEXT((#892,#893,#894))
REPRESENTATION_CONTEXT('','3D')
);
#892=(
LENGTH_UNIT()
NAMED_UNIT(*)
SI_UNIT(.MILLI.,.METRE.)
);
#893=(
NAMED_UNIT(*)
PLANE_ANGLE_UNIT()
SI_UNIT($,.RADIAN.)
);
#894=(
NAMED_UNIT(*)
SI_UNIT($,.STERADIAN.)
SOLID_ANGLE_UNIT()
);
#895=SHAPE_DEFINITION_REPRESENTATION(#896,#897);
#896=PRODUCT_DEFINITION_SHAPE('',$,#899);
#897=SHAPE_REPRESENTATION('',(#502),#890);
#898=PRODUCT_DEFINITION_CONTEXT('part definition',#903,'design');
#899=PRODUCT_DEFINITION('23769-E0W','Post Holder (vertical) v1',#900,#898);
#900=PRODUCT_DEFINITION_FORMATION('',$,#905);
#901=PRODUCT_RELATED_PRODUCT_CATEGORY('Post Holder (vertical) v1',
'Post Holder (vertical) v1',(#905));
#902=APPLICATION_PROTOCOL_DEFINITION('international standard',
'automotive_design',2009,#903);
#903=APPLICATION_CONTEXT(
'Core Data for Automotive Mechanical Design Process');
#904=PRODUCT_CONTEXT('part definition',#903,'mechanical');
#905=PRODUCT('23769-E0W','Post Holder (vertical) v1','STEP AP203',(#904));
#906=PRESENTATION_STYLE_ASSIGNMENT((#907));
#907=SURFACE_STYLE_USAGE(.BOTH.,#908);
#908=SURFACE_SIDE_STYLE('',(#909));
#909=SURFACE_STYLE_FILL_AREA(#910);
#910=FILL_AREA_STYLE('Nylon 6-6 (White)',(#911));
#911=FILL_AREA_STYLE_COLOUR('Nylon 6-6 (White)',#912);
#912=COLOUR_RGB('Nylon 6-6 (White)',0.972549019607843,0.968627450980392,
0.929411764705882);
ENDSEC;
END-ISO-10303-21;
