ISO-10303-21;
HEADER;
/* Generated by software containing ST-Developer
 * from STEP Tools, Inc. (www.steptools.com) 
 */
/* OPTION: using custom renumber hook */

FILE_DESCRIPTION(
/* description */ ('STEP AP242',
'CAx-IF Rec.Pracs.---Representation and Presentation of Product Manufa
cturing Information (PMI)---4.0---2014-10-13',
'CAx-IF Rec.Pracs.---3D Tessellated Geometry---0.4---2014-09-14','2;1'),

/* implementation_level */ '2;1');

FILE_NAME(
/* name */ '6842bb23702c3046b49ff7d1',
/* time_stamp */ '2025-06-06T09:55:48Z',
/* author */ (''),
/* organization */ (''),
/* preprocessor_version */ 'ST-DEVELOPER v20',
/* originating_system */ 'ONSHAPE BY PTC INC, 1.198',
/* authorisation */ '  ');

FILE_SCHEMA (('AP242_MANAGED_MODEL_BASED_3D_ENGINEERING_MIM_LF { 1 0 10303 442 1 1 4 }'));
ENDSEC;

DATA;
#10=SHAPE_REPRESENTATION_RELATIONSHIP('','',#279,#11);
#11=ADVANCED_BREP_SHAPE_REPRESENTATION('',(#277),#481);
#12=CONICAL_SURFACE('',#305,0.00897295305288215,0.077546409004471);
#13=CONICAL_SURFACE('',#308,0.0255,0.0775464090044708);
#14=CONICAL_SURFACE('',#311,0.0255,0.0775464090044712);
#15=CONICAL_SURFACE('',#314,0.0255,0.0775464090044706);
#16=SPHERICAL_SURFACE('',#303,0.009);
#17=SPHERICAL_SURFACE('',#306,0.009);
#18=SPHERICAL_SURFACE('',#309,0.009);
#19=SPHERICAL_SURFACE('',#312,0.009);
#20=CIRCLE('',#283,0.009);
#21=CIRCLE('',#284,0.009);
#22=CIRCLE('',#287,0.009);
#23=CIRCLE('',#288,0.009);
#24=CIRCLE('',#290,0.0255);
#25=CIRCLE('',#291,0.0255);
#26=CIRCLE('',#292,0.0255);
#27=CIRCLE('',#293,0.0255);
#28=CIRCLE('',#297,0.009);
#29=CIRCLE('',#298,0.009);
#30=CIRCLE('',#301,0.009);
#31=CIRCLE('',#302,0.009);
#32=CIRCLE('',#304,0.00897295305288215);
#33=CIRCLE('',#307,0.00897295305288216);
#34=CIRCLE('',#310,0.00897295305288215);
#35=CIRCLE('',#313,0.00897295305288216);
#36=CYLINDRICAL_SURFACE('',#282,0.009);
#37=CYLINDRICAL_SURFACE('',#286,0.009);
#38=CYLINDRICAL_SURFACE('',#296,0.009);
#39=CYLINDRICAL_SURFACE('',#300,0.009);
#40=ORIENTED_EDGE('',*,*,#112,.F.);
#41=ORIENTED_EDGE('',*,*,#113,.T.);
#42=ORIENTED_EDGE('',*,*,#114,.T.);
#43=ORIENTED_EDGE('',*,*,#115,.F.);
#44=ORIENTED_EDGE('',*,*,#114,.F.);
#45=ORIENTED_EDGE('',*,*,#116,.T.);
#46=ORIENTED_EDGE('',*,*,#117,.T.);
#47=ORIENTED_EDGE('',*,*,#118,.F.);
#48=ORIENTED_EDGE('',*,*,#117,.F.);
#49=ORIENTED_EDGE('',*,*,#119,.T.);
#50=ORIENTED_EDGE('',*,*,#120,.T.);
#51=ORIENTED_EDGE('',*,*,#121,.F.);
#52=ORIENTED_EDGE('',*,*,#120,.F.);
#53=ORIENTED_EDGE('',*,*,#122,.T.);
#54=ORIENTED_EDGE('',*,*,#123,.T.);
#55=ORIENTED_EDGE('',*,*,#124,.F.);
#56=ORIENTED_EDGE('',*,*,#125,.T.);
#57=ORIENTED_EDGE('',*,*,#112,.T.);
#58=ORIENTED_EDGE('',*,*,#126,.T.);
#59=ORIENTED_EDGE('',*,*,#127,.F.);
#60=ORIENTED_EDGE('',*,*,#128,.T.);
#61=ORIENTED_EDGE('',*,*,#129,.F.);
#62=ORIENTED_EDGE('',*,*,#130,.T.);
#63=ORIENTED_EDGE('',*,*,#131,.T.);
#64=ORIENTED_EDGE('',*,*,#123,.F.);
#65=ORIENTED_EDGE('',*,*,#132,.T.);
#66=ORIENTED_EDGE('',*,*,#129,.T.);
#67=ORIENTED_EDGE('',*,*,#133,.F.);
#68=ORIENTED_EDGE('',*,*,#134,.F.);
#69=ORIENTED_EDGE('',*,*,#135,.F.);
#70=ORIENTED_EDGE('',*,*,#127,.T.);
#71=ORIENTED_EDGE('',*,*,#136,.T.);
#72=ORIENTED_EDGE('',*,*,#121,.T.);
#73=ORIENTED_EDGE('',*,*,#137,.F.);
#74=ORIENTED_EDGE('',*,*,#134,.T.);
#75=ORIENTED_EDGE('',*,*,#138,.T.);
#76=ORIENTED_EDGE('',*,*,#131,.F.);
#77=ORIENTED_EDGE('',*,*,#139,.T.);
#78=ORIENTED_EDGE('',*,*,#140,.T.);
#79=ORIENTED_EDGE('',*,*,#141,.F.);
#80=ORIENTED_EDGE('',*,*,#140,.F.);
#81=ORIENTED_EDGE('',*,*,#142,.F.);
#82=ORIENTED_EDGE('',*,*,#119,.F.);
#83=ORIENTED_EDGE('',*,*,#143,.T.);
#84=ORIENTED_EDGE('',*,*,#144,.F.);
#85=ORIENTED_EDGE('',*,*,#137,.T.);
#86=ORIENTED_EDGE('',*,*,#124,.T.);
#87=ORIENTED_EDGE('',*,*,#135,.T.);
#88=ORIENTED_EDGE('',*,*,#144,.T.);
#89=ORIENTED_EDGE('',*,*,#133,.T.);
#90=ORIENTED_EDGE('',*,*,#128,.F.);
#91=ORIENTED_EDGE('',*,*,#145,.F.);
#92=ORIENTED_EDGE('',*,*,#118,.T.);
#93=ORIENTED_EDGE('',*,*,#138,.F.);
#94=ORIENTED_EDGE('',*,*,#115,.T.);
#95=ORIENTED_EDGE('',*,*,#145,.T.);
#96=ORIENTED_EDGE('',*,*,#136,.F.);
#97=ORIENTED_EDGE('',*,*,#126,.F.);
#98=ORIENTED_EDGE('',*,*,#146,.F.);
#99=ORIENTED_EDGE('',*,*,#143,.F.);
#100=ORIENTED_EDGE('',*,*,#116,.F.);
#101=ORIENTED_EDGE('',*,*,#141,.T.);
#102=ORIENTED_EDGE('',*,*,#146,.T.);
#103=ORIENTED_EDGE('',*,*,#113,.F.);
#104=ORIENTED_EDGE('',*,*,#125,.F.);
#105=ORIENTED_EDGE('',*,*,#147,.F.);
#106=ORIENTED_EDGE('',*,*,#122,.F.);
#107=ORIENTED_EDGE('',*,*,#142,.T.);
#108=ORIENTED_EDGE('',*,*,#132,.F.);
#109=ORIENTED_EDGE('',*,*,#147,.T.);
#110=ORIENTED_EDGE('',*,*,#139,.F.);
#111=ORIENTED_EDGE('',*,*,#130,.F.);
#112=EDGE_CURVE('',#148,#149,#168,.T.);
#113=EDGE_CURVE('',#148,#150,#169,.T.);
#114=EDGE_CURVE('',#150,#151,#170,.T.);
#115=EDGE_CURVE('',#149,#151,#171,.T.);
#116=EDGE_CURVE('',#150,#152,#20,.F.);
#117=EDGE_CURVE('',#152,#153,#172,.T.);
#118=EDGE_CURVE('',#151,#153,#21,.F.);
#119=EDGE_CURVE('',#152,#154,#173,.T.);
#120=EDGE_CURVE('',#154,#155,#174,.T.);
#121=EDGE_CURVE('',#153,#155,#175,.T.);
#122=EDGE_CURVE('',#154,#156,#22,.F.);
#123=EDGE_CURVE('',#156,#157,#176,.T.);
#124=EDGE_CURVE('',#155,#157,#23,.F.);
#125=EDGE_CURVE('',#158,#148,#24,.T.);
#126=EDGE_CURVE('',#149,#159,#25,.T.);
#127=EDGE_CURVE('',#160,#159,#177,.T.);
#128=EDGE_CURVE('',#160,#161,#26,.T.);
#129=EDGE_CURVE('',#162,#161,#178,.T.);
#130=EDGE_CURVE('',#162,#163,#27,.T.);
#131=EDGE_CURVE('',#163,#158,#179,.T.);
#132=EDGE_CURVE('',#156,#162,#180,.T.);
#133=EDGE_CURVE('',#157,#161,#181,.T.);
#134=EDGE_CURVE('',#164,#165,#182,.T.);
#135=EDGE_CURVE('',#160,#164,#183,.T.);
#136=EDGE_CURVE('',#159,#165,#184,.T.);
#137=EDGE_CURVE('',#164,#155,#28,.T.);
#138=EDGE_CURVE('',#165,#153,#29,.T.);
#139=EDGE_CURVE('',#163,#166,#185,.T.);
#140=EDGE_CURVE('',#166,#167,#186,.T.);
#141=EDGE_CURVE('',#158,#167,#187,.T.);
#142=EDGE_CURVE('',#154,#166,#30,.T.);
#143=EDGE_CURVE('',#152,#167,#31,.T.);
#144=EDGE_CURVE('',#164,#157,#32,.T.);
#145=EDGE_CURVE('',#151,#165,#33,.T.);
#146=EDGE_CURVE('',#167,#150,#34,.T.);
#147=EDGE_CURVE('',#156,#166,#35,.T.);
#148=VERTEX_POINT('',#408);
#149=VERTEX_POINT('',#409);
#150=VERTEX_POINT('',#411);
#151=VERTEX_POINT('',#413);
#152=VERTEX_POINT('',#417);
#153=VERTEX_POINT('',#419);
#154=VERTEX_POINT('',#423);
#155=VERTEX_POINT('',#425);
#156=VERTEX_POINT('',#429);
#157=VERTEX_POINT('',#431);
#158=VERTEX_POINT('',#435);
#159=VERTEX_POINT('',#437);
#160=VERTEX_POINT('',#439);
#161=VERTEX_POINT('',#441);
#162=VERTEX_POINT('',#443);
#163=VERTEX_POINT('',#445);
#164=VERTEX_POINT('',#452);
#165=VERTEX_POINT('',#453);
#166=VERTEX_POINT('',#461);
#167=VERTEX_POINT('',#463);
#168=LINE('',#407,#188);
#169=LINE('',#410,#189);
#170=LINE('',#412,#190);
#171=LINE('',#414,#191);
#172=LINE('',#418,#192);
#173=LINE('',#422,#193);
#174=LINE('',#424,#194);
#175=LINE('',#426,#195);
#176=LINE('',#430,#196);
#177=LINE('',#438,#197);
#178=LINE('',#442,#198);
#179=LINE('',#446,#199);
#180=LINE('',#448,#200);
#181=LINE('',#449,#201);
#182=LINE('',#451,#202);
#183=LINE('',#454,#203);
#184=LINE('',#455,#204);
#185=LINE('',#460,#205);
#186=LINE('',#462,#206);
#187=LINE('',#464,#207);
#188=VECTOR('',#319,1.);
#189=VECTOR('',#320,1.);
#190=VECTOR('',#321,1.);
#191=VECTOR('',#322,1.);
#192=VECTOR('',#327,1.);
#193=VECTOR('',#332,1.);
#194=VECTOR('',#333,1.);
#195=VECTOR('',#334,1.);
#196=VECTOR('',#339,1.);
#197=VECTOR('',#348,1.);
#198=VECTOR('',#351,1.);
#199=VECTOR('',#354,1.);
#200=VECTOR('',#357,1.);
#201=VECTOR('',#358,1.);
#202=VECTOR('',#361,1.);
#203=VECTOR('',#362,1.);
#204=VECTOR('',#363,1.);
#205=VECTOR('',#372,1.);
#206=VECTOR('',#373,1.);
#207=VECTOR('',#374,1.);
#208=EDGE_LOOP('',(#40,#41,#42,#43));
#209=EDGE_LOOP('',(#44,#45,#46,#47));
#210=EDGE_LOOP('',(#48,#49,#50,#51));
#211=EDGE_LOOP('',(#52,#53,#54,#55));
#212=EDGE_LOOP('',(#56,#57,#58,#59,#60,#61,#62,#63));
#213=EDGE_LOOP('',(#64,#65,#66,#67));
#214=EDGE_LOOP('',(#68,#69,#70,#71));
#215=EDGE_LOOP('',(#72,#73,#74,#75));
#216=EDGE_LOOP('',(#76,#77,#78,#79));
#217=EDGE_LOOP('',(#80,#81,#82,#83));
#218=EDGE_LOOP('',(#84,#85,#86));
#219=EDGE_LOOP('',(#87,#88,#89,#90));
#220=EDGE_LOOP('',(#91,#92,#93));
#221=EDGE_LOOP('',(#94,#95,#96,#97));
#222=EDGE_LOOP('',(#98,#99,#100));
#223=EDGE_LOOP('',(#101,#102,#103,#104));
#224=EDGE_LOOP('',(#105,#106,#107));
#225=EDGE_LOOP('',(#108,#109,#110,#111));
#226=FACE_BOUND('',#208,.T.);
#227=FACE_BOUND('',#209,.T.);
#228=FACE_BOUND('',#210,.T.);
#229=FACE_BOUND('',#211,.T.);
#230=FACE_BOUND('',#212,.T.);
#231=FACE_BOUND('',#213,.T.);
#232=FACE_BOUND('',#214,.T.);
#233=FACE_BOUND('',#215,.T.);
#234=FACE_BOUND('',#216,.T.);
#235=FACE_BOUND('',#217,.T.);
#236=FACE_BOUND('',#218,.T.);
#237=FACE_BOUND('',#219,.T.);
#238=FACE_BOUND('',#220,.T.);
#239=FACE_BOUND('',#221,.T.);
#240=FACE_BOUND('',#222,.T.);
#241=FACE_BOUND('',#223,.T.);
#242=FACE_BOUND('',#224,.T.);
#243=FACE_BOUND('',#225,.T.);
#244=PLANE('',#281);
#245=PLANE('',#285);
#246=PLANE('',#289);
#247=PLANE('',#294);
#248=PLANE('',#295);
#249=PLANE('',#299);
#250=ADVANCED_FACE('',(#226),#244,.T.);
#251=ADVANCED_FACE('',(#227),#36,.T.);
#252=ADVANCED_FACE('',(#228),#245,.T.);
#253=ADVANCED_FACE('',(#229),#37,.T.);
#254=ADVANCED_FACE('',(#230),#246,.T.);
#255=ADVANCED_FACE('',(#231),#247,.T.);
#256=ADVANCED_FACE('',(#232),#248,.F.);
#257=ADVANCED_FACE('',(#233),#38,.T.);
#258=ADVANCED_FACE('',(#234),#249,.T.);
#259=ADVANCED_FACE('',(#235),#39,.T.);
#260=ADVANCED_FACE('',(#236),#16,.T.);
#261=ADVANCED_FACE('',(#237),#12,.T.);
#262=ADVANCED_FACE('',(#238),#17,.T.);
#263=ADVANCED_FACE('',(#239),#13,.T.);
#264=ADVANCED_FACE('',(#240),#18,.T.);
#265=ADVANCED_FACE('',(#241),#14,.T.);
#266=ADVANCED_FACE('',(#242),#19,.T.);
#267=ADVANCED_FACE('',(#243),#15,.T.);
#268=CLOSED_SHELL('',(#250,#251,#252,#253,#254,#255,#256,#257,#258,#259,
#260,#261,#262,#263,#264,#265,#266,#267));
#269=STYLED_ITEM('',(#270),#277);
#270=PRESENTATION_STYLE_ASSIGNMENT((#271));
#271=SURFACE_STYLE_USAGE(.BOTH.,#272);
#272=SURFACE_SIDE_STYLE('',(#273));
#273=SURFACE_STYLE_FILL_AREA(#274);
#274=FILL_AREA_STYLE('',(#275));
#275=FILL_AREA_STYLE_COLOUR('',#276);
#276=COLOUR_RGB('',0.917647058823529,0.917647058823529,0.917647058823529);
#277=MANIFOLD_SOLID_BREP('interno',#268);
#278=SHAPE_DEFINITION_REPRESENTATION(#486,#279);
#279=SHAPE_REPRESENTATION('interno',(#280),#481);
#280=AXIS2_PLACEMENT_3D('',#405,#315,#316);
#281=AXIS2_PLACEMENT_3D('',#406,#317,#318);
#282=AXIS2_PLACEMENT_3D('',#415,#323,#324);
#283=AXIS2_PLACEMENT_3D('',#416,#325,#326);
#284=AXIS2_PLACEMENT_3D('',#420,#328,#329);
#285=AXIS2_PLACEMENT_3D('',#421,#330,#331);
#286=AXIS2_PLACEMENT_3D('',#427,#335,#336);
#287=AXIS2_PLACEMENT_3D('',#428,#337,#338);
#288=AXIS2_PLACEMENT_3D('',#432,#340,#341);
#289=AXIS2_PLACEMENT_3D('',#433,#342,#343);
#290=AXIS2_PLACEMENT_3D('',#434,#344,#345);
#291=AXIS2_PLACEMENT_3D('',#436,#346,#347);
#292=AXIS2_PLACEMENT_3D('',#440,#349,#350);
#293=AXIS2_PLACEMENT_3D('',#444,#352,#353);
#294=AXIS2_PLACEMENT_3D('',#447,#355,#356);
#295=AXIS2_PLACEMENT_3D('',#450,#359,#360);
#296=AXIS2_PLACEMENT_3D('',#456,#364,#365);
#297=AXIS2_PLACEMENT_3D('',#457,#366,#367);
#298=AXIS2_PLACEMENT_3D('',#458,#368,#369);
#299=AXIS2_PLACEMENT_3D('',#459,#370,#371);
#300=AXIS2_PLACEMENT_3D('',#465,#375,#376);
#301=AXIS2_PLACEMENT_3D('',#466,#377,#378);
#302=AXIS2_PLACEMENT_3D('',#467,#379,#380);
#303=AXIS2_PLACEMENT_3D('',#468,#381,#382);
#304=AXIS2_PLACEMENT_3D('',#469,#383,#384);
#305=AXIS2_PLACEMENT_3D('',#470,#385,#386);
#306=AXIS2_PLACEMENT_3D('',#471,#387,#388);
#307=AXIS2_PLACEMENT_3D('',#472,#389,#390);
#308=AXIS2_PLACEMENT_3D('',#473,#391,#392);
#309=AXIS2_PLACEMENT_3D('',#474,#393,#394);
#310=AXIS2_PLACEMENT_3D('',#475,#395,#396);
#311=AXIS2_PLACEMENT_3D('',#476,#397,#398);
#312=AXIS2_PLACEMENT_3D('',#477,#399,#400);
#313=AXIS2_PLACEMENT_3D('',#478,#401,#402);
#314=AXIS2_PLACEMENT_3D('',#479,#403,#404);
#315=DIRECTION('',(0.,0.,1.));
#316=DIRECTION('',(1.,0.,0.));
#317=DIRECTION('',(-0.996994783653574,0.,-0.0774687121847463));
#318=DIRECTION('',(-0.0774687121847463,0.,0.996994783653574));
#319=DIRECTION('',(0.,-1.,0.));
#320=DIRECTION('',(0.0774687121847463,0.,-0.996994783653574));
#321=DIRECTION('',(0.,-1.,0.));
#322=DIRECTION('',(0.0774687121847463,0.,-0.996994783653574));
#323=DIRECTION('',(0.,-1.,0.));
#324=DIRECTION('',(0.,0.,-1.));
#325=DIRECTION('',(0.,1.,0.));
#326=DIRECTION('',(0.,0.,1.));
#327=DIRECTION('',(0.,-1.,0.));
#328=DIRECTION('',(0.,1.,0.));
#329=DIRECTION('',(0.,0.,1.));
#330=DIRECTION('',(0.,0.,-1.));
#331=DIRECTION('',(-1.,0.,0.));
#332=DIRECTION('',(1.,0.,0.));
#333=DIRECTION('',(0.,-1.,0.));
#334=DIRECTION('',(1.,0.,0.));
#335=DIRECTION('',(0.,-1.,0.));
#336=DIRECTION('',(0.,0.,-1.));
#337=DIRECTION('',(0.,1.,0.));
#338=DIRECTION('',(0.,0.,1.));
#339=DIRECTION('',(0.,-1.,0.));
#340=DIRECTION('',(0.,1.,0.));
#341=DIRECTION('',(0.,0.,1.));
#342=DIRECTION('',(0.,0.,1.));
#343=DIRECTION('',(1.,0.,0.));
#344=DIRECTION('',(0.,0.,1.));
#345=DIRECTION('',(1.,0.,0.));
#346=DIRECTION('',(0.,0.,1.));
#347=DIRECTION('',(1.,0.,0.));
#348=DIRECTION('',(-1.,0.,0.));
#349=DIRECTION('',(0.,0.,1.));
#350=DIRECTION('',(1.,0.,0.));
#351=DIRECTION('',(0.,-1.,0.));
#352=DIRECTION('',(0.,0.,1.));
#353=DIRECTION('',(1.,0.,0.));
#354=DIRECTION('',(-1.,0.,0.));
#355=DIRECTION('',(0.996994783653574,0.,-0.0774687121847459));
#356=DIRECTION('',(-0.0774687121847459,0.,-0.996994783653574));
#357=DIRECTION('',(0.0774687121847459,0.,0.996994783653574));
#358=DIRECTION('',(0.0774687121847459,0.,0.996994783653574));
#359=DIRECTION('',(0.,0.996994783653574,0.0774687121847458));
#360=DIRECTION('',(0.,-0.0774687121847458,0.996994783653574));
#361=DIRECTION('',(-1.,0.,0.));
#362=DIRECTION('',(0.,0.0774687121847458,-0.996994783653574));
#363=DIRECTION('',(0.,0.0774687121847458,-0.996994783653574));
#364=DIRECTION('',(-1.,0.,0.));
#365=DIRECTION('',(0.,0.,1.));
#366=DIRECTION('',(1.,0.,0.));
#367=DIRECTION('',(0.,0.,-1.));
#368=DIRECTION('',(1.,0.,0.));
#369=DIRECTION('',(0.,0.,-1.));
#370=DIRECTION('',(0.,0.996994783653574,-0.0774687121847454));
#371=DIRECTION('',(0.,0.0774687121847455,0.996994783653574));
#372=DIRECTION('',(0.,-0.0774687121847455,-0.996994783653574));
#373=DIRECTION('',(-1.,0.,0.));
#374=DIRECTION('',(0.,-0.0774687121847455,-0.996994783653574));
#375=DIRECTION('',(-1.,0.,0.));
#376=DIRECTION('',(0.,0.,1.));
#377=DIRECTION('',(1.,0.,0.));
#378=DIRECTION('',(0.,0.,-1.));
#379=DIRECTION('',(1.,0.,0.));
#380=DIRECTION('',(0.,0.,-1.));
#381=DIRECTION('',(0.,0.,1.));
#382=DIRECTION('',(6.12323399573677E-17,-1.,0.));
#383=DIRECTION('',(0.,0.,1.));
#384=DIRECTION('',(1.,0.,0.));
#385=DIRECTION('',(0.,0.,1.));
#386=DIRECTION('',(1.,0.,0.));
#387=DIRECTION('',(0.,0.,1.));
#388=DIRECTION('',(-1.,-6.12323399573677E-17,0.));
#389=DIRECTION('',(0.,0.,1.));
#390=DIRECTION('',(1.,0.,0.));
#391=DIRECTION('',(0.,0.,1.));
#392=DIRECTION('',(1.,0.,0.));
#393=DIRECTION('',(0.,0.,1.));
#394=DIRECTION('',(-6.12323399573677E-17,1.,0.));
#395=DIRECTION('',(0.,0.,1.));
#396=DIRECTION('',(1.,0.,0.));
#397=DIRECTION('',(0.,0.,1.));
#398=DIRECTION('',(1.,0.,0.));
#399=DIRECTION('',(0.,0.,1.));
#400=DIRECTION('',(1.,6.12323399573677E-17,0.));
#401=DIRECTION('',(0.,0.,1.));
#402=DIRECTION('',(1.,0.,0.));
#403=DIRECTION('',(0.,0.,1.));
#404=DIRECTION('',(1.,0.,0.));
#405=CARTESIAN_POINT('',(0.,0.,0.));
#406=CARTESIAN_POINT('',(-0.0897364765264411,0.125002,0.114651390795169));
#407=CARTESIAN_POINT('',(-0.098,0.125002,0.221));
#408=CARTESIAN_POINT('',(-0.098,0.125,0.221));
#409=CARTESIAN_POINT('',(-0.098,-0.125,0.221));
#410=CARTESIAN_POINT('',(-0.0897364765264411,0.125,0.114651390795169));
#411=CARTESIAN_POINT('',(-0.0814729530528822,0.125,0.00830278159033729));
#412=CARTESIAN_POINT('',(-0.0814729530528822,0.125002,0.00830278159033729));
#413=CARTESIAN_POINT('',(-0.0814729530528822,-0.125,0.00830278159033725));
#414=CARTESIAN_POINT('',(-0.0897364765264411,-0.125,0.114651390795169));
#415=CARTESIAN_POINT('',(-0.0725,0.125002,0.009));
#416=CARTESIAN_POINT('',(-0.0725,0.125,0.009));
#417=CARTESIAN_POINT('',(-0.0725,0.125,0.));
#418=CARTESIAN_POINT('',(-0.0725,0.125002,0.));
#419=CARTESIAN_POINT('',(-0.0725,-0.125,-4.5102810375397E-17));
#420=CARTESIAN_POINT('',(-0.0725,-0.125,0.009));
#421=CARTESIAN_POINT('',(0.,0.125002,0.));
#422=CARTESIAN_POINT('',(0.,0.125,0.));
#423=CARTESIAN_POINT('',(0.0725,0.125,0.));
#424=CARTESIAN_POINT('',(0.0725,0.125002,2.60208521396521E-17));
#425=CARTESIAN_POINT('',(0.0725,-0.125,2.60208521396521E-17));
#426=CARTESIAN_POINT('',(0.,-0.125,0.));
#427=CARTESIAN_POINT('',(0.0725,0.125002,0.009));
#428=CARTESIAN_POINT('',(0.0725,0.125,0.009));
#429=CARTESIAN_POINT('',(0.0814729530528822,0.125,0.00830278159033729));
#430=CARTESIAN_POINT('',(0.0814729530528822,0.125002,0.00830278159033732));
#431=CARTESIAN_POINT('',(0.0814729530528822,-0.125,0.00830278159033732));
#432=CARTESIAN_POINT('',(0.0725,-0.125,0.009));
#433=CARTESIAN_POINT('',(-4.16333634234433E-17,0.125002,0.221));
#434=CARTESIAN_POINT('',(-0.0725,0.125,0.221));
#435=CARTESIAN_POINT('',(-0.0725,0.1505,0.221));
#436=CARTESIAN_POINT('',(-0.0725,-0.125,0.221));
#437=CARTESIAN_POINT('',(-0.0725,-0.1505,0.221));
#438=CARTESIAN_POINT('',(0.072502,-0.1505,0.221));
#439=CARTESIAN_POINT('',(0.0725,-0.1505,0.221));
#440=CARTESIAN_POINT('',(0.0725,-0.125,0.221));
#441=CARTESIAN_POINT('',(0.098,-0.125,0.221));
#442=CARTESIAN_POINT('',(0.098,0.125002,0.221));
#443=CARTESIAN_POINT('',(0.098,0.125,0.221));
#444=CARTESIAN_POINT('',(0.0725,0.125,0.221));
#445=CARTESIAN_POINT('',(0.0725,0.1505,0.221));
#446=CARTESIAN_POINT('',(0.072502,0.1505,0.221));
#447=CARTESIAN_POINT('',(0.0897364765264411,0.125002,0.114651390795169));
#448=CARTESIAN_POINT('',(0.0897364765264411,0.125,0.114651390795169));
#449=CARTESIAN_POINT('',(0.0897364765264411,-0.125,0.114651390795169));
#450=CARTESIAN_POINT('',(0.072502,-0.142236476526441,0.114651390795169));
#451=CARTESIAN_POINT('',(0.072502,-0.133972953052882,0.00830278159033725));
#452=CARTESIAN_POINT('',(0.0725,-0.133972953052882,0.00830278159033725));
#453=CARTESIAN_POINT('',(-0.0725,-0.133972953052882,0.00830278159033725));
#454=CARTESIAN_POINT('',(0.0725,-0.142236476526441,0.114651390795169));
#455=CARTESIAN_POINT('',(-0.0725,-0.142236476526441,0.114651390795169));
#456=CARTESIAN_POINT('',(0.072502,-0.125,0.009));
#457=CARTESIAN_POINT('',(0.0725,-0.125,0.009));
#458=CARTESIAN_POINT('',(-0.0725,-0.125,0.009));
#459=CARTESIAN_POINT('',(0.072502,0.142236476526441,0.114651390795169));
#460=CARTESIAN_POINT('',(0.0725,0.142236476526441,0.114651390795169));
#461=CARTESIAN_POINT('',(0.0725,0.133972953052882,0.00830278159033729));
#462=CARTESIAN_POINT('',(0.072502,0.133972953052882,0.00830278159033729));
#463=CARTESIAN_POINT('',(-0.0725,0.133972953052882,0.00830278159033729));
#464=CARTESIAN_POINT('',(-0.0725,0.142236476526441,0.114651390795169));
#465=CARTESIAN_POINT('',(0.072502,0.125,0.009));
#466=CARTESIAN_POINT('',(0.0725,0.125,0.009));
#467=CARTESIAN_POINT('',(-0.0725,0.125,0.009));
#468=CARTESIAN_POINT('',(0.0725,-0.125,0.009));
#469=CARTESIAN_POINT('',(0.0725,-0.125,0.00830278159033732));
#470=CARTESIAN_POINT('',(0.0725,-0.125,0.00830278159033732));
#471=CARTESIAN_POINT('',(-0.0725,-0.125,0.009));
#472=CARTESIAN_POINT('',(-0.0725,-0.125,0.00830278159033725));
#473=CARTESIAN_POINT('',(-0.0725,-0.125,0.221));
#474=CARTESIAN_POINT('',(-0.0725,0.125,0.009));
#475=CARTESIAN_POINT('',(-0.0725,0.125,0.00830278159033729));
#476=CARTESIAN_POINT('',(-0.0725,0.125,0.221));
#477=CARTESIAN_POINT('',(0.0725,0.125,0.009));
#478=CARTESIAN_POINT('',(0.0725,0.125,0.00830278159033729));
#479=CARTESIAN_POINT('',(0.0725,0.125,0.221));
#480=MECHANICAL_DESIGN_GEOMETRIC_PRESENTATION_REPRESENTATION('',(#269),
#481);
#481=(
GEOMETRIC_REPRESENTATION_CONTEXT(3)
GLOBAL_UNCERTAINTY_ASSIGNED_CONTEXT((#482))
GLOBAL_UNIT_ASSIGNED_CONTEXT((#485,#484,#483))
REPRESENTATION_CONTEXT('interno','TOP_LEVEL_ASSEMBLY_PART')
);
#482=UNCERTAINTY_MEASURE_WITH_UNIT(LENGTH_MEASURE(1.E-8),#485,
'DISTANCE_ACCURACY_VALUE','Maximum Tolerance applied to model');
#483=(
NAMED_UNIT(*)
SI_UNIT($,.STERADIAN.)
SOLID_ANGLE_UNIT()
);
#484=(
NAMED_UNIT(*)
PLANE_ANGLE_UNIT()
SI_UNIT($,.RADIAN.)
);
#485=(
LENGTH_UNIT()
NAMED_UNIT(*)
SI_UNIT($,.METRE.)
);
#486=PRODUCT_DEFINITION_SHAPE('','',#487);
#487=PRODUCT_DEFINITION('','',#489,#488);
#488=PRODUCT_DEFINITION_CONTEXT('',#495,'design');
#489=PRODUCT_DEFINITION_FORMATION_WITH_SPECIFIED_SOURCE('','',#491,
 .NOT_KNOWN.);
#490=PRODUCT_RELATED_PRODUCT_CATEGORY('','',(#491));
#491=PRODUCT('interno','interno','interno',(#493));
#492=PRODUCT_CATEGORY('','');
#493=PRODUCT_CONTEXT('',#495,'mechanical');
#494=APPLICATION_PROTOCOL_DEFINITION('international standard',
'ap242_managed_model_based_3d_engineering',2011,#495);
#495=APPLICATION_CONTEXT('managed model based 3d engineering');
ENDSEC;
END-ISO-10303-21;
